<svg width="9" height="12" viewBox="0 0 9 12" fill="none" xmlns="http://www.w3.org/2000/svg">
<path d="M4.49653 0.5C6.965 0.5 9 2.54484 9 5.07477C9 6.34963 8.55371 7.5332 7.81915 8.53637C7.00878 9.64293 6.00997 10.6071 4.8857 11.3638C4.62839 11.5387 4.39617 11.5519 4.11377 11.3638C2.9831 10.6071 1.98428 9.64293 1.18085 8.53637C0.445756 7.5332 0 6.34963 0 5.07477C0 2.54484 2.035 0.5 4.49653 0.5ZM4.49653 3.67726C3.68029 3.67726 3.01459 4.37629 3.01459 5.21721C3.01459 6.06474 3.68029 6.73132 4.49653 6.73132C5.3133 6.73132 5.98541 6.06474 5.98541 5.21721C5.98541 4.37629 5.3133 3.67726 4.49653 3.67726Z" fill="#242424"/>
</svg>
